<?xml version="1.0" encoding="UTF-8" standalone="no"?>
<!-- Uploaded to: SVG Repo, www.svgrepo.com, Generator: SVG Repo Mixer Tools -->

<svg
   fill="#000000"
   width="800px"
   height="800px"
   viewBox="0 0 24 24"
   role="img"
   version="1.1"
   id="svg1"
   sodipodi:docname="cPlusPlusWhite.svg"
   inkscape:version="1.3 (0e150ed6c4, 2023-07-21)"
   xmlns:inkscape="http://www.inkscape.org/namespaces/inkscape"
   xmlns:sodipodi="http://sodipodi.sourceforge.net/DTD/sodipodi-0.dtd"
   xmlns="http://www.w3.org/2000/svg"
   xmlns:svg="http://www.w3.org/2000/svg"
   xmlns:rdf="http://www.w3.org/1999/02/22-rdf-syntax-ns#"
   xmlns:cc="http://creativecommons.org/ns#"
   xmlns:dc="http://purl.org/dc/elements/1.1/">
  <defs
     id="defs1" />
  <sodipodi:namedview
     id="namedview1"
     pagecolor="#ffffff"
     bordercolor="#000000"
     borderopacity="0.25"
     inkscape:showpageshadow="2"
     inkscape:pageopacity="0.0"
     inkscape:pagecheckerboard="0"
     inkscape:deskcolor="#d1d1d1"
     inkscape:zoom="1.02625"
     inkscape:cx="400.48721"
     inkscape:cy="400"
     inkscape:window-width="1920"
     inkscape:window-height="1017"
     inkscape:window-x="-8"
     inkscape:window-y="-8"
     inkscape:window-maximized="1"
     inkscape:current-layer="svg1" />
  <title
     id="title1">C++ icon</title>
  <path
     d="M22.393 6c-.167-.29-.398-.543-.652-.69L12.925.22c-.508-.293-1.339-.293-1.847 0L2.26 5.31c-.508.293-.923 1.013-.923 1.6v10.18c0 .294.104.62.271.91.167.29.398.543.652.689l8.816 5.091c.508.293 1.339.293 1.847 0l8.816-5.091c.254-.146.485-.399.652-.689s.271-.616.271-.91V6.91c.002-.294-.102-.62-.269-.91zM12 19.109c-3.92 0-7.109-3.189-7.109-7.109S8.08 4.891 12 4.891a7.133 7.133 0 0 1 6.156 3.552l-3.076 1.781A3.567 3.567 0 0 0 12 8.445c-1.96 0-3.554 1.595-3.554 3.555S10.04 15.555 12 15.555a3.57 3.57 0 0 0 3.08-1.778l3.077 1.78A7.135 7.135 0 0 1 12 19.109zm7.109-6.714h-.79v.79h-.79v-.79h-.79v-.79h.79v-.79h.79v.79h.79v.79zm2.962 0h-.79v.79h-.79v-.79h-.789v-.79h.789v-.79h.79v.79h.79v.79z"
     id="path1"
     style="fill:#ffffff" />
  <metadata
     id="metadata1">
    <rdf:RDF>
      <cc:Work
         rdf:about="">
        <dc:title>C++ icon</dc:title>
      </cc:Work>
    </rdf:RDF>
  </metadata>
</svg>
