<?xml version="1.0" standalone="no"?>
<!DOCTYPE svg PUBLIC "-//W3C//DTD SVG 20010904//EN"
 "http://www.w3.org/TR/2001/REC-SVG-20010904/DTD/svg10.dtd">
<svg version="1.0" xmlns="http://www.w3.org/2000/svg"
 width="512.000000pt" height="512.000000pt" viewBox="0 0 512.000000 512.000000"
 preserveAspectRatio="xMidYMid meet">

<g transform="translate(0.000000,512.000000) scale(0.100000,-0.100000)"
fill="#000000" stroke="none">
<path d="M1973 4733 c7 -43 -10 -113 -28 -113 -7 0 -18 7 -25 15 -21 25 -50
19 -50 -10 0 -14 -5 -25 -10 -25 -6 0 -8 -15 -4 -40 l7 -40 -38 3 -38 2 -2
-70 c-5 -128 -75 -544 -185 -1095 -332 -1658 -453 -2459 -382 -2523 27 -24
357 -190 449 -225 59 -23 99 -32 141 -32 l58 0 54 77 c29 42 86 116 126 164
l73 87 95 254 c168 450 273 677 471 1013 107 183 284 455 295 455 5 0 10 -10
12 -22 5 -39 -10 -458 -28 -753 -22 -364 -25 -627 -7 -679 7 -21 12 -51 11
-66 -3 -34 41 -108 87 -149 42 -37 340 -188 468 -238 129 -49 175 -56 258 -37
62 14 69 18 69 40 0 17 29 57 90 126 53 60 88 108 85 116 -3 8 3 16 15 19 15
4 20 14 20 42 0 33 -3 37 -39 48 -21 7 -54 10 -74 6 -45 -7 -63 7 -89 63 -34
78 -42 218 -29 521 6 153 16 332 21 398 18 216 19 249 20 360 1 163 -17 419
-35 514 -28 144 -69 234 -136 298 -39 37 -84 55 -200 78 -51 10 -93 25 -105
37 -40 36 -356 118 -457 118 -88 0 -230 -101 -413 -293 -76 -80 -105 -105
-101 -87 46 197 219 1185 238 1357 12 105 12 113 -5 132 -24 26 -81 38 -102
20 -12 -10 -25 -8 -70 11 -31 12 -66 33 -79 46 -27 27 -111 54 -275 89 -163
34 -164 34 -157 -12z"/>
</g>
</svg>
