<?xml version="1.0" encoding="UTF-8" standalone="no"?>
<!-- Uploaded to: SVG Repo, www.svgrepo.com, Generator: SVG Repo Mixer Tools -->

<svg
   width="800px"
   height="800px"
   viewBox="0 0 24 24"
   version="1.1"
   id="svg3"
   sodipodi:docname="PsWhite.svg"
   inkscape:version="1.3 (0e150ed6c4, 2023-07-21)"
   xmlns:inkscape="http://www.inkscape.org/namespaces/inkscape"
   xmlns:sodipodi="http://sodipodi.sourceforge.net/DTD/sodipodi-0.dtd"
   xmlns="http://www.w3.org/2000/svg"
   xmlns:svg="http://www.w3.org/2000/svg"
   xmlns:rdf="http://www.w3.org/1999/02/22-rdf-syntax-ns#"
   xmlns:cc="http://creativecommons.org/ns#"
   xmlns:dc="http://purl.org/dc/elements/1.1/">
  <defs
     id="defs3" />
  <sodipodi:namedview
     id="namedview3"
     pagecolor="#ffffff"
     bordercolor="#000000"
     borderopacity="0.25"
     inkscape:showpageshadow="2"
     inkscape:pageopacity="0.0"
     inkscape:pagecheckerboard="0"
     inkscape:deskcolor="#d1d1d1"
     inkscape:zoom="1.02625"
     inkscape:cx="400.48721"
     inkscape:cy="400"
     inkscape:window-width="1920"
     inkscape:window-height="1017"
     inkscape:window-x="-8"
     inkscape:window-y="-8"
     inkscape:window-maximized="1"
     inkscape:current-layer="svg3" />
  <title
     id="title1">ps</title>
  <path
     d="M19,5V19H5V5H19m0-2H5A2,2,0,0,0,3,5V19a2,2,0,0,0,2,2H19a2,2,0,0,0,2-2V5a2,2,0,0,0-2-2Z"
     id="path1"
     style="fill:#ffffff" />
  <path
     d="m 12.11,10.47 a 2.41,2.41 0 0 1 -0.8,1.94 3.36,3.36 0 0 1 -2.25,0.67 H 8.35 v 2.79 H 6.68 V 8 h 2.51 a 3.32,3.32 0 0 1 2.17,0.62 2.22,2.22 0 0 1 0.75,1.85 z M 8.35,11.72 H 8.89 A 1.82,1.82 0 0 0 10,11.41 1,1 0 0 0 10.38,10.53 1.08,1.08 0 0 0 10.06,9.66 1.51,1.51 0 0 0 9.06,9.38 H 8.35 Z"
     id="path2"
     style="fill:#ffffff" />
  <path
     d="m 17.32,14.09 a 1.68,1.68 0 0 1 -0.64,1.41 3.2,3.2 0 0 1 -1.92,0.48 6,6 0 0 1 -1.12,-0.09 4,4 0 0 1 -0.87,-0.26 v -1.35 a 6.52,6.52 0 0 0 1,0.36 4.58,4.58 0 0 0 1,0.14 c 0.59,0 0.89,-0.17 0.89,-0.51 a 0.44,0.44 0 0 0 -0.12,-0.32 1.5,1.5 0 0 0 -0.4,-0.27 l -0.78,-0.36 a 4.61,4.61 0 0 1 -1,-0.54 1.55,1.55 0 0 1 -0.47,-0.56 1.89,1.89 0 0 1 -0.15,-0.79 1.44,1.44 0 0 1 0.62,-1.24 3.05,3.05 0 0 1 1.76,-0.44 4.89,4.89 0 0 1 2.11,0.48 l -0.49,1.18 A 8.28,8.28 0 0 0 15.9,11.09 2.72,2.72 0 0 0 15.1,10.97 c -0.49,0 -0.73,0.13 -0.73,0.39 a 0.46,0.46 0 0 0 0.24,0.38 5.56,5.56 0 0 0 1,0.48 5,5 0 0 1 1,0.53 1.59,1.59 0 0 1 0.48,0.57 1.68,1.68 0 0 1 0.23,0.77 z"
     id="path3"
     style="fill:#ffffff" />
  <metadata
     id="metadata3">
    <rdf:RDF>
      <cc:Work
         rdf:about="">
        <dc:title>ps</dc:title>
      </cc:Work>
    </rdf:RDF>
  </metadata>
</svg>
