<?xml version="1.0" encoding="UTF-8" standalone="no"?>
<!-- Uploaded to: SVG Repo, www.svgrepo.com, Generator: SVG Repo Mixer Tools -->

<svg
   fill="#000000"
   width="800px"
   height="800px"
   viewBox="0 -4.5 33 33"
   version="1.1"
   id="svg5"
   sodipodi:docname="svnWhite.svg"
   inkscape:version="1.3 (0e150ed6c4, 2023-07-21)"
   xmlns:inkscape="http://www.inkscape.org/namespaces/inkscape"
   xmlns:sodipodi="http://sodipodi.sourceforge.net/DTD/sodipodi-0.dtd"
   xmlns="http://www.w3.org/2000/svg"
   xmlns:svg="http://www.w3.org/2000/svg">
  <defs
     id="defs5" />
  <sodipodi:namedview
     id="namedview5"
     pagecolor="#ffffff"
     bordercolor="#000000"
     borderopacity="0.25"
     inkscape:showpageshadow="2"
     inkscape:pageopacity="0.0"
     inkscape:pagecheckerboard="0"
     inkscape:deskcolor="#d1d1d1"
     inkscape:zoom="1.02625"
     inkscape:cx="399.51279"
     inkscape:cy="400"
     inkscape:window-width="1920"
     inkscape:window-height="1017"
     inkscape:window-x="1912"
     inkscape:window-y="-8"
     inkscape:window-maximized="1"
     inkscape:current-layer="svg5" />
  <path
     d="m2.726 17.352c0 .184-.149.333-.333.333s-.333-.149-.333-.333.149-.333.333-.333.333.149.333.333z"
     id="path1"
     style="fill:#ffffff" />
  <path
     d="m1.596 19.413c0 .184-.149.333-.333.333s-.333-.149-.333-.333.149-.333.333-.333.333.149.333.333z"
     id="path2"
     style="fill:#ffffff" />
  <path
     d="m1.596 17.352c0 .184-.149.333-.333.333s-.333-.149-.333-.333.149-.333.333-.333.333.149.333.333z"
     id="path3"
     style="fill:#ffffff" />
  <path
     d="m2.726 19.413c0 .184-.149.333-.333.333s-.333-.149-.333-.333.149-.333.333-.333.333.149.333.333z"
     id="path4"
     style="fill:#ffffff" />
  <path
     d="m32.426 0c-.383.107-.773.275-1.078.328-11.154 2.173-21.798 4.784-31.347 8.562v6.184c.509-.04 8.506-.858 9.707-.955 2.564-.208 11.177-1.157 14.528-.925.683.089 1.689.236 1.799.872.06.347-.24.654-.436.836-.055.059-.096.134-.182.16-1.602 1.076-3.456 1.95-5.438 2.525l-.141.035c-5.604 1.838-12.306 3.389-19.193 4.363l-.646.075v1.941h.715c7.049-1.13 13.723-2.892 20.195-4.574 3.984-1.035 7.96-2.576 11.666-3.939v-7.087c-.685.099-4.098.577-13.582 1.494-7.68.743-9.798.53-10.382.348-.023-.015-.042-.03-.06-.045l.001.001c-.081-.037-.145-.1-.181-.179l-.001-.002c-.219-.236-.037-.663.16-.8.043-.088.112-.157.197-.199l.003-.001c.7-.558 1.504-1.029 2.371-1.376l.064-.023c1.527-.69 3.405-1.377 5.336-1.938l.318-.079c.987-.287 1.975-.583 2.98-.854 3.356-.964 7.67-1.914 12.061-2.632l.713-.096v-2.018z"
     id="path5"
     style="fill:#ffffff" />
</svg>
